<svg width="28" height="28" viewBox="0 0 28 28" fill="none" xmlns="http://www.w3.org/2000/svg">
    <path d="M20.4859 13.4859C21.1695 12.8023 21.1695 11.6922 20.4859 11.0086C19.8023 10.325 18.6922 10.325 18.0086 11.0086L15.75 13.2727V1.75C15.75 0.782031 14.968 0 14 0C13.032 0 12.25 0.782031 12.25 1.75V13.2727L9.98594 11.0086C9.30234 10.325 8.19219 10.325 7.50859 11.0086C6.825 11.6922 6.825 12.8023 7.50859 13.4859L12.7586 18.7359C13.4422 19.4195 14.5523 19.4195 15.2359 18.7359L20.4859 13.4859ZM4.375 1.75C1.95781 1.75 0 3.70781 0 6.125V23.625C0 26.0422 1.95781 28 4.375 28H23.625C26.0422 28 28 26.0422 28 23.625V6.125C28 3.70781 26.0422 1.75 23.625 1.75H21.875C20.907 1.75 20.125 2.53203 20.125 3.5C20.125 4.46797 20.907 5.25 21.875 5.25H23.625C24.1063 5.25 24.5 5.64375 24.5 6.125V23.625C24.5 24.1063 24.1063 24.5 23.625 24.5H4.375C3.89375 24.5 3.5 24.1063 3.5 23.625V6.125C3.5 5.64375 3.89375 5.25 4.375 5.25H6.125C7.09297 5.25 7.875 4.46797 7.875 3.5C7.875 2.53203 7.09297 1.75 6.125 1.75H4.375Z" fill="red"/>
</svg>